<?xml version="1.0" standalone="no"?>
<!DOCTYPE svg PUBLIC "-//W3C//DTD SVG 20010904//EN"
 "http://www.w3.org/TR/2001/REC-SVG-20010904/DTD/svg10.dtd">
<svg version="1.0" xmlns="http://www.w3.org/2000/svg"
 width="70.000000pt" height="70.000000pt" viewBox="0 0 70.000000 70.000000"
 preserveAspectRatio="xMidYMid meet">
<metadata>
Created by potrace 1.14, written by Peter Selinger 2001-2017
</metadata>
<g transform="translate(0.000000,70.000000) scale(0.100000,-0.100000)"
fill="#000000" stroke="none">
<path d="M275 685 c-73 -17 -114 -41 -171 -100 -77 -79 -115 -201 -92 -295 5
-19 11 -43 13 -53 8 -34 54 -104 88 -134 l34 -30 -20 -29 -21 -29 25 23 26 22
47 -20 c60 -27 79 -31 146 -31 65 0 74 2 120 21 228 91 296 380 131 551 -45
47 -46 49 -33 76 l14 28 -20 -22 -21 -21 -59 24 c-72 29 -140 35 -207 19z"/>
</g>
</svg>
